# xmcd
#
# Track frame offsets:
#       150
#       17963
#       28045
#       41551
#       54995
#       64385
#       75178
#       89213
#       101988
#       115006
#       127985
#       142197
#       157361
#       171467
#       186621
#       202839
#       213461
#       229336
#       245058
#       257042
#       271212
#       288247
#       300539
#       314257
#       329135
#       344275
#
# Disc length: 4800 seconds
#
# Revision: 2
# Processed by: cddbd v1.5.2PL0 Copyright (c) Steve Scherf et al.
# Submitted via: FreeDbEdit v0.1
#
DISCID=9812be1a
DTITLE=George Strait - 50 Number Ones [CD1]
DYEAR=2004
DGENRE=Country
TTITLE0=I Hate Everything
TTITLE1=Fool Hearted Memory
TTITLE2=A Fire I Can't Put Out
TTITLE3=You Look So Good in Love
TTITLE4=Right or Wrong
TTITLE5=Let's Fall to Pieces Together
TTITLE6=Does Fort Worth Ever Cross Your Mind?
TTITLE7=The Chair
TTITLE8=Nobody in His Right Mind Would've Left Her
TTITLE9=It Ain't Cool to Be Crazy About You
TTITLE10=Ocean Front Property
TTITLE11=All My Ex's Live in Texas
TTITLE12=Am I Blue
TTITLE13=Famous Last Words of a Fool
TTITLE14=Baby Blue
TTITLE15=If You Ain't Lovin' (You Ain't Livin')
TTITLE16=Baby's Gotten Good at Goodbye
TTITLE17=What's Going on in Your World
TTITLE18=Ace in the Hole
TTITLE19=Love Without End, Amen
TTITLE20=I've Come to Expect It From You
TTITLE21=If I Know Me
TTITLE22=You Know Me Better Than That
TTITLE23=The Chill of an Early Fall
TTITLE24=So Much Like My Dad
TTITLE25=I Cross My Heart
EXTD=YEAR: 2004
EXTT0=
EXTT1=
EXTT2=
EXTT3=
EXTT4=
EXTT5=
EXTT6=
EXTT7=
EXTT8=
EXTT9=
EXTT10=
EXTT11=
EXTT12=
EXTT13=
EXTT14=
EXTT15=
EXTT16=
EXTT17=
EXTT18=
EXTT19=
EXTT20=
EXTT21=
EXTT22=
EXTT23=
EXTT24=
EXTT25=
PLAYORDER=
